<?xml version="1.0" standalone="no"?>
<!DOCTYPE svg PUBLIC "-//W3C//DTD SVG 20010904//EN"
 "http://www.w3.org/TR/2001/REC-SVG-20010904/DTD/svg10.dtd">
<svg version="1.0" xmlns="http://www.w3.org/2000/svg"
 width="500.000000pt" height="500.000000pt" viewBox="0 0 500.000000 500.000000"
 preserveAspectRatio="xMidYMid meet">

<g transform="translate(0.000000,500.000000) scale(0.100000,-0.100000)"
fill="#000000" stroke="none">
<path d="M2210 4985 c-363 -48 -749 -184 -1030 -361 -239 -152 -519 -406 -670
-609 -498 -669 -641 -1516 -387 -2285 86 -262 224 -528 388 -747 97 -130 347
-379 481 -479 333 -249 693 -401 1127 -477 109 -19 162 -22 391 -21 247 0 275
2 405 27 275 54 437 106 669 216 427 202 802 543 1052 956 176 291 278 575
340 950 29 170 27 524 -4 704 -53 308 -117 512 -237 756 -211 429 -546 788
-973 1042 -283 168 -662 293 -1009 333 -118 13 -426 11 -543 -5z m556 -1341
c15 -11 42 -37 58 -58 l31 -38 3 -329 c2 -265 5 -331 16 -335 8 -3 153 -6 322
-7 333 -2 353 -5 404 -58 59 -62 60 -66 60 -303 0 -252 -7 -280 -83 -336 l-41
-30 -322 0 c-280 0 -325 -2 -338 -16 -14 -13 -16 -58 -16 -339 l0 -323 -33
-44 c-18 -24 -52 -53 -77 -65 -41 -22 -57 -23 -240 -23 -107 0 -211 4 -230 10
-19 5 -52 24 -74 42 -68 56 -70 64 -73 422 -1 175 -5 321 -8 325 -4 3 -153 7
-333 9 -355 4 -357 5 -406 62 -49 59 -60 124 -52 328 7 201 13 228 67 279 58
55 69 56 409 61 221 3 317 7 322 16 4 6 8 150 8 319 0 339 1 348 61 403 54 50
75 53 316 51 207 -2 223 -3 249 -23z"/>
</g>
</svg>
