<?xml version="1.0" standalone="no"?>
<!DOCTYPE svg PUBLIC "-//W3C//DTD SVG 20010904//EN"
 "http://www.w3.org/TR/2001/REC-SVG-20010904/DTD/svg10.dtd">
<svg version="1.0" xmlns="http://www.w3.org/2000/svg"
 width="580.000000pt" height="386.000000pt" viewBox="0 0 580.000000 386.000000"
 preserveAspectRatio="xMidYMid meet">

<g transform="translate(0.000000,386.000000) scale(0.100000,-0.100000)"
fill="#000000" stroke="none">
<path d="M2506 3476 c-34 -19 -66 -63 -66 -90 0 -14 -15 -16 -100 -16 l-100 0
0 -145 0 -145 375 0 375 0 0 145 0 145 -98 0 -98 0 -19 42 c-28 60 -66 79
-160 81 -59 2 -84 -2 -109 -17z m167 -62 c22 -22 24 -30 16 -51 -21 -55 -85
-70 -133 -32 -33 26 -33 53 -1 84 33 34 84 34 118 -1z"/>
<path d="M1976 3455 c-29 -31 -32 -40 -41 -117 l-6 -58 -163 0 c-119 0 -177
-4 -216 -16 -125 -37 -194 -115 -220 -249 -8 -43 -10 -325 -8 -1015 l3 -955
24 -52 c27 -61 93 -126 159 -156 46 -22 55 -22 709 -25 l662 -3 -11 32 c-6 17
-18 60 -27 95 l-16 63 -615 3 c-660 3 -642 2 -678 55 -16 25 -17 80 -17 783
l0 755 1143 3 1142 2 0 -288 0 -289 80 -22 c45 -12 87 -24 96 -28 13 -5 14 60
12 548 -3 547 -3 555 -25 595 -30 57 -79 102 -143 133 -54 26 -58 26 -280 26
l-225 0 -6 70 c-5 68 -20 112 -43 127 -6 4 -30 8 -54 8 -34 0 -49 -6 -71 -28
-24 -24 -29 -38 -35 -111 -4 -46 -4 -136 0 -199 6 -102 10 -119 30 -139 53
-53 129 -34 160 41 l17 41 216 -3 c211 -3 217 -4 240 -26 35 -35 53 -173 35
-265 l-6 -31 -1144 0 -1144 0 1 108 c1 182 22 211 159 212 233 3 258 1 265
-20 3 -11 20 -33 36 -50 57 -56 139 -29 154 52 4 18 5 109 3 201 -3 190 -9
204 -86 214 -35 5 -44 2 -66 -22z"/>
<path d="M1800 2223 c-47 -18 -50 -30 -50 -173 0 -120 2 -139 18 -153 16 -15
45 -17 203 -17 244 0 229 -11 229 169 0 185 12 175 -214 178 -94 1 -178 0
-186 -4z m290 -93 c14 -22 12 -144 -2 -158 -8 -8 -49 -12 -120 -12 -122 0
-112 -10 -108 100 1 36 7 71 13 78 16 20 204 13 217 -8z"/>
<path d="M2483 2223 c-44 -9 -53 -38 -53 -175 0 -177 -12 -168 231 -168 l188
0 20 26 c19 24 21 40 21 146 0 66 -4 128 -10 138 -17 31 -66 40 -224 39 -83
-1 -161 -4 -173 -6z m295 -85 c7 -7 12 -43 12 -90 0 -96 -3 -98 -134 -98 -87
0 -96 2 -110 22 -18 25 -21 113 -6 152 9 26 11 26 118 26 71 0 112 -4 120 -12z"/>
<path d="M3140 2210 c-24 -21 -25 -25 -25 -159 0 -115 3 -140 17 -154 23 -24
60 -21 118 8 77 39 148 66 235 90 l80 22 0 82 c-1 70 -4 84 -23 104 -21 21
-32 22 -200 25 -170 3 -178 3 -202 -18z m318 -58 c6 -9 12 -37 12 -63 0 -47 0
-47 -39 -54 -21 -3 -67 -20 -101 -36 -68 -32 -82 -34 -108 -18 -14 9 -16 23
-14 90 5 105 11 109 140 102 72 -4 100 -9 110 -21z"/>
<path d="M3585 1879 c-305 -45 -559 -276 -632 -577 -21 -88 -21 -256 0 -344
86 -352 383 -588 742 -588 332 0 620 210 725 530 40 124 37 332 -7 440 l-14
35 -43 -45 -43 -46 -6 -139 c-9 -221 -49 -327 -170 -449 -128 -129 -320 -205
-491 -193 -230 15 -456 184 -544 404 -25 63 -27 78 -26 213 0 123 4 154 22
204 91 245 294 405 538 423 117 8 217 -12 349 -73 6 -3 9 25 7 76 -4 95 2 90
-147 121 -96 20 -163 22 -260 8z"/>
<path d="M4289 1668 c-124 -82 -258 -179 -487 -355 l-123 -95 -32 25 c-18 13
-66 52 -107 86 -121 99 -184 120 -210 71 -22 -40 56 -219 168 -385 56 -83 75
-104 115 -124 47 -23 49 -23 92 -7 33 13 80 54 193 169 82 84 174 179 203 212
29 33 55 62 58 65 4 3 19 21 35 40 16 19 69 78 118 131 84 92 168 196 168 208
-1 16 -30 41 -47 41 -11 0 -76 -37 -144 -82z"/>
<path d="M2462 1597 c-20 -22 -22 -33 -22 -160 0 -177 -13 -167 217 -167 162
0 173 1 173 19 0 10 13 65 30 122 37 130 37 144 -1 180 l-31 29 -172 0 c-167
0 -173 -1 -194 -23z m309 -77 c10 -16 8 -37 -12 -117 l-14 -53 -90 0 c-58 0
-95 4 -103 12 -7 7 -12 41 -12 85 0 58 3 74 18 83 27 16 200 9 213 -10z"/>
<path d="M1766 1588 c-13 -18 -16 -51 -16 -154 0 -114 2 -133 18 -147 16 -15
46 -17 209 -17 171 0 192 2 206 18 14 15 17 42 17 150 0 182 14 172 -229 172
-185 0 -190 -1 -205 -22z m320 -70 c13 -21 16 -125 4 -147 -10 -20 -18 -21
-118 -19 l-107 3 -3 74 c-2 41 -1 80 2 88 7 17 211 19 222 1z"/>
</g>
</svg>
