<?xml version="1.0" standalone="no"?>
<!DOCTYPE svg PUBLIC "-//W3C//DTD SVG 20010904//EN"
 "http://www.w3.org/TR/2001/REC-SVG-20010904/DTD/svg10.dtd">
<svg version="1.0" xmlns="http://www.w3.org/2000/svg"
 width="500.000000pt" height="500.000000pt" viewBox="0 0 500.000000 500.000000"
 preserveAspectRatio="xMidYMid meet">

<g transform="translate(0.000000,500.000000) scale(0.100000,-0.100000)"
fill="#000000" stroke="none">
<path d="M2375 3836 c-130 -61 -195 -201 -150 -320 10 -25 15 -54 12 -65 -8
-31 13 -110 32 -124 47 -33 83 -207 49 -235 -7 -5 -67 -33 -133 -61 -145 -62
-172 -76 -208 -110 -38 -34 -75 -108 -79 -156 l-3 -37 112 -57 c61 -31 120
-64 131 -74 10 -9 21 -17 24 -17 3 0 8 35 11 78 9 117 57 207 131 247 29 16
36 24 31 40 -13 41 -17 103 -9 118 8 13 19 8 72 -33 99 -77 124 -75 231 19 19
16 38 28 43 25 12 -7 10 -76 -3 -114 -9 -26 -9 -34 2 -40 97 -57 151 -147 165
-272 3 -38 9 -68 12 -68 3 0 14 8 24 18 11 9 67 42 126 72 l107 55 -2 43 c-3
70 -63 155 -138 195 -16 9 -86 41 -154 71 -68 30 -127 58 -131 63 -17 17 -15
117 3 150 9 18 17 38 17 44 0 7 12 26 28 42 24 26 27 36 29 110 1 45 5 106 9
134 5 45 3 61 -19 105 -61 123 -140 178 -257 178 -47 0 -78 -7 -115 -24z"/>
<path d="M1462 3487 c-12 -7 -29 -23 -38 -35 -8 -12 -23 -22 -33 -22 -30 0
-68 -38 -87 -85 -13 -35 -15 -60 -10 -108 4 -34 8 -98 10 -141 2 -70 5 -81 27
-100 13 -12 30 -40 37 -62 7 -23 19 -47 27 -54 10 -8 15 -31 15 -71 l0 -59
-92 -46 c-207 -103 -301 -172 -338 -244 -24 -49 -40 -150 -40 -262 l0 -95 113
-119 c106 -113 315 -337 437 -469 30 -33 105 -114 166 -180 61 -66 125 -136
142 -155 l31 -35 1 290 c0 304 5 347 48 431 29 58 86 108 159 144 74 35 86 37
79 13 -17 -54 -26 -180 -20 -282 l7 -116 -41 -33 c-49 -38 -62 -77 -62 -177 0
-77 9 -101 34 -92 13 5 16 22 16 80 0 108 8 135 42 153 31 16 59 12 83 -12 11
-12 15 -39 15 -107 0 -103 9 -129 37 -111 15 10 18 25 16 108 -2 107 -13 135
-63 164 -27 16 -28 18 -34 131 -8 139 6 265 33 320 18 34 21 59 21 158 0 133
-15 211 -53 274 -39 68 -70 91 -243 178 l-161 82 -6 56 c-5 46 -2 61 14 84 10
15 22 42 26 60 3 18 18 43 32 55 25 21 26 27 27 129 1 58 5 126 9 150 10 70
-32 133 -120 178 -86 44 -214 60 -263 34z m53 -865 l59 -50 41 34 c103 89 126
107 130 102 19 -19 1 -97 -74 -318 -46 -135 -87 -249 -91 -253 -9 -10 -190
499 -190 534 0 51 9 47 125 -49z"/>
<path d="M3365 3480 c-87 -18 -165 -83 -189 -158 -20 -58 -29 -233 -15 -284 5
-21 18 -42 28 -48 10 -5 23 -29 30 -53 6 -24 17 -50 26 -57 10 -9 15 -31 15
-76 l0 -64 -159 -80 c-88 -44 -175 -93 -193 -109 -73 -64 -107 -171 -108 -341
0 -132 -2 -129 115 -178 129 -54 187 -102 229 -192 l31 -65 5 -319 5 -319 34
39 c19 21 77 86 130 143 53 57 104 113 114 125 10 12 37 41 60 66 33 36 201
219 252 276 6 6 55 60 111 120 193 209 174 178 174 284 0 173 -32 282 -103
352 -19 18 -101 67 -183 108 -82 41 -157 81 -166 89 -23 18 -25 122 -4 140 8
6 19 32 25 58 7 25 22 54 34 63 20 17 22 27 23 137 0 189 -15 225 -126 298
-73 49 -124 60 -195 45z m-37 -827 c37 -31 74 -63 83 -71 15 -12 27 -5 95 57
44 39 82 71 87 71 30 1 -31 -217 -159 -570 -8 -21 -16 -5 -53 106 -17 49 -53
154 -81 233 -44 128 -64 231 -44 231 3 0 36 -26 72 -57z"/>
<path d="M2387 2883 c-56 -19 -120 -77 -141 -128 -10 -24 -16 -78 -18 -165 -2
-121 -1 -132 20 -157 12 -16 29 -41 38 -58 9 -16 29 -44 44 -62 26 -29 28 -36
23 -95 -3 -35 -12 -71 -20 -80 -8 -9 -13 -21 -12 -26 5 -12 172 -162 181 -162
10 0 178 161 178 170 0 5 -6 15 -13 22 -8 7 -17 41 -20 74 -6 54 -4 64 14 80
12 11 30 37 41 59 12 22 31 53 44 68 23 27 24 36 24 163 0 147 -10 186 -58
237 -48 51 -98 70 -192 74 -60 2 -99 -2 -133 -14z"/>
<path d="M2727 2063 c-6 -33 7 -153 22 -203 6 -19 34 -80 61 -136 28 -55 53
-117 57 -137 5 -31 1 -39 -23 -60 -39 -34 -39 -90 0 -123 35 -31 67 -30 105 2
42 35 42 81 1 122 -18 19 -33 48 -40 78 -6 27 -31 88 -55 136 -57 112 -85 205
-85 278 0 44 -4 59 -16 64 -22 8 -21 9 -27 -21z"/>
</g>
</svg>
