<?xml version="1.0" standalone="no"?>
<!DOCTYPE svg PUBLIC "-//W3C//DTD SVG 20010904//EN"
 "http://www.w3.org/TR/2001/REC-SVG-20010904/DTD/svg10.dtd">
<svg version="1.0" xmlns="http://www.w3.org/2000/svg"
 width="500.000000pt" height="500.000000pt" viewBox="0 0 500.000000 500.000000"
 preserveAspectRatio="xMidYMid meet">

<g transform="translate(0.000000,500.000000) scale(0.100000,-0.100000)"
fill="#000000" stroke="none">
<path d="M2359 4989 c-151 -7 -209 -17 -188 -30 8 -5 9 -9 4 -9 -6 0 -15 4
-21 10 -15 15 -243 -29 -329 -63 -16 -6 -37 -12 -45 -12 -9 0 -15 -9 -14 -22
1 -13 -3 -20 -7 -17 -5 3 -7 9 -4 14 3 5 1 11 -5 15 -5 3 -10 1 -10 -5 0 -6
-6 -10 -12 -9 -18 3 -68 -11 -103 -29 -16 -9 -33 -15 -37 -14 -5 1 -8 -2 -8
-7 0 -5 -6 -8 -12 -7 -25 2 -147 -59 -148 -74 0 -13 -1 -13 -10 0 -8 12 -10
12 -10 1 0 -8 -3 -12 -6 -8 -4 3 -36 -10 -73 -30 -80 -44 -92 -53 -85 -64 3
-5 -1 -6 -9 -3 -19 7 -143 -70 -139 -86 1 -6 -2 -9 -7 -6 -5 4 -23 -5 -39 -19
-16 -14 -33 -25 -38 -25 -8 0 -19 -9 -70 -60 -17 -16 -36 -30 -42 -30 -6 0
-19 -10 -29 -22 -10 -13 -28 -28 -38 -34 -11 -6 -20 -17 -20 -25 0 -8 -5 -14
-11 -14 -13 0 -111 -95 -98 -95 5 -1 0 -6 -12 -13 -27 -15 -84 -81 -84 -96 0
-7 -4 -9 -10 -6 -5 3 -10 0 -10 -7 0 -8 -8 -21 -18 -30 -42 -41 -53 -57 -55
-76 0 -11 -4 -19 -8 -16 -11 6 -31 -24 -24 -35 3 -7 0 -8 -10 -5 -11 5 -14 2
-8 -12 3 -10 2 -15 -3 -12 -5 4 -28 -22 -51 -58 -31 -49 -38 -66 -29 -74 7 -5
15 -8 17 -5 3 2 5 -6 5 -20 0 -13 -4 -21 -8 -19 -5 3 -6 9 -3 14 6 9 -23 35
-31 27 -3 -3 -6 -12 -8 -20 -1 -8 -7 -21 -14 -29 -6 -8 -13 -24 -15 -36 -2
-12 -7 -25 -12 -29 -4 -5 -5 -2 -1 5 4 6 5 12 2 12 -10 0 -35 -57 -29 -64 4
-3 2 -6 -4 -6 -6 0 -21 -26 -33 -57 -13 -32 -27 -63 -31 -69 -5 -6 -3 -16 4
-23 9 -10 9 -11 -4 -6 -11 4 -18 -3 -26 -27 -6 -18 -25 -70 -42 -115 -17 -46
-26 -83 -20 -83 6 0 4 -7 -4 -15 -19 -18 -51 -150 -41 -166 4 -7 3 -9 -3 -6
-6 4 -13 -4 -15 -18 -3 -16 0 -26 11 -30 14 -6 13 -8 -4 -21 -22 -16 -28 -52
-12 -72 7 -9 6 -11 -6 -6 -12 4 -15 -1 -13 -25 1 -17 6 -34 11 -38 4 -4 5 -3
2 3 -3 6 0 11 8 11 11 0 12 -4 4 -14 -6 -7 -15 -11 -19 -8 -5 3 -11 1 -15 -5
-3 -5 0 -10 7 -10 10 0 9 -3 -2 -10 -8 -5 -12 -12 -8 -15 3 -4 2 -21 -3 -38
-14 -46 -12 -397 2 -502 6 -50 11 -98 11 -107 0 -10 3 -18 7 -18 5 0 6 -12 3
-26 -3 -19 -1 -25 7 -20 6 4 8 12 5 18 -5 7 -2 8 6 3 10 -6 12 -4 7 9 -4 9 -3
15 2 11 6 -3 9 -14 8 -25 -1 -10 -4 -17 -8 -14 -13 7 -19 -27 -13 -67 4 -21 9
-39 13 -39 3 0 7 -17 8 -37 1 -21 6 -39 12 -41 5 -2 7 -10 4 -18 -3 -8 3 -21
13 -29 12 -9 14 -14 6 -15 -10 0 -10 -5 -1 -23 7 -12 12 -23 11 -24 -8 -11 0
-33 10 -27 7 4 8 3 4 -5 -9 -14 22 -111 34 -111 5 0 7 -6 4 -14 -3 -7 1 -20 8
-27 7 -8 13 -20 14 -26 2 -30 5 -34 16 -27 6 4 8 3 5 -3 -8 -12 39 -124 56
-135 7 -4 9 -8 4 -8 -8 0 20 -60 29 -60 3 0 2 5 -2 12 -4 7 -3 8 5 4 6 -4 8
-12 5 -18 -4 -6 1 -17 11 -25 14 -9 15 -13 4 -13 -9 -1 -7 -7 9 -20 13 -10 23
-23 24 -27 3 -23 21 -63 29 -63 5 0 9 -5 9 -11 0 -7 8 -18 17 -26 10 -8 12
-11 4 -7 -10 5 -12 3 -7 -5 5 -7 15 -10 23 -6 13 4 13 3 4 -8 -9 -11 -8 -17 2
-26 8 -6 18 -7 22 -3 5 4 5 1 1 -6 -10 -17 62 -115 80 -108 8 3 11 -2 9 -14
-2 -12 7 -28 23 -42 15 -13 29 -27 31 -33 8 -22 55 -63 65 -58 6 4 8 3 4 -2
-4 -4 0 -14 10 -22 11 -9 12 -12 2 -8 -8 4 -2 -4 15 -18 16 -14 33 -23 37 -21
4 3 5 -1 2 -9 -3 -9 9 -26 32 -43 21 -16 60 -50 87 -76 27 -27 53 -45 58 -42
5 3 8 1 7 -4 -3 -9 54 -62 67 -62 4 0 21 -13 38 -30 18 -16 35 -29 39 -27 3 1
18 -9 32 -22 14 -13 32 -21 40 -18 10 4 13 1 10 -7 -4 -11 12 -25 36 -30 3 -1
24 -14 47 -29 24 -15 45 -27 49 -27 3 0 13 -7 21 -16 9 -8 24 -13 35 -11 10 3
16 1 13 -3 -8 -13 94 -60 113 -52 9 3 13 1 9 -5 -8 -13 225 -112 298 -127 6
-1 27 -8 48 -15 21 -7 45 -10 53 -7 8 3 12 2 9 -3 -3 -6 16 -13 42 -16 27 -4
55 -9 63 -13 30 -12 133 -29 166 -27 18 1 31 -2 28 -6 -2 -4 21 -9 52 -11 31
-1 58 1 61 6 3 4 8 4 12 -2 9 -15 381 -19 404 -5 5 3 34 7 65 8 94 4 290 40
306 55 5 5 15 6 22 3 8 -3 14 0 14 6 0 6 7 8 15 5 8 -4 22 -1 30 6 9 7 31 14
50 16 19 2 48 10 64 19 17 8 31 12 31 8 0 -5 7 1 15 11 8 11 15 15 15 8 0 -13
56 4 67 21 4 6 1 7 -7 2 -9 -5 -11 -4 -6 4 4 6 12 8 18 5 12 -8 148 46 148 58
0 5 5 6 10 3 6 -3 10 -1 10 4 0 6 9 11 19 11 10 0 42 16 71 35 29 19 58 35 65
35 8 0 17 4 20 10 3 5 21 17 40 26 19 9 35 20 35 25 0 5 7 9 16 9 9 0 12 5 8
12 -4 7 -3 8 5 4 15 -9 73 32 65 46 -4 6 -2 8 4 4 6 -3 18 1 26 10 9 8 16 12
16 8 0 -4 7 1 15 12 8 10 15 15 15 11 0 -4 6 -3 13 3 6 5 24 20 40 31 15 11
25 24 23 27 -2 4 2 13 10 20 11 10 14 10 14 0 0 -7 16 4 34 24 18 21 37 34 41
30 5 -4 5 -2 1 5 -4 7 3 17 16 24 26 13 128 119 128 132 0 4 4 6 9 2 6 -3 15
5 22 17 7 12 23 31 36 41 13 10 21 22 18 26 -2 5 3 17 11 27 9 10 13 12 9 4
-3 -8 8 1 25 20 37 42 154 210 145 210 -3 0 1 10 10 23 8 13 12 27 8 31 -4 4
1 4 12 0 11 -4 17 -4 13 1 -4 4 0 14 8 22 8 8 12 19 9 24 -4 5 -1 9 4 9 6 0
11 5 11 10 0 6 12 28 26 49 14 22 26 46 28 54 1 8 7 21 13 28 16 20 64 131 66
152 1 9 5 17 9 17 4 0 8 5 8 11 0 5 -4 8 -8 5 -4 -2 -8 4 -8 14 0 13 4 16 12
9 13 -11 28 16 18 32 -3 5 0 9 6 9 6 0 8 4 5 10 -3 5 -1 10 4 10 6 0 10 3 9 8
-1 4 4 21 11 37 7 17 14 44 15 62 0 17 4 29 9 26 12 -7 8 12 -5 26 -11 10 -9
11 6 5 13 -5 17 -4 12 4 -4 6 -2 19 3 29 20 34 40 133 28 133 -9 0 -9 2 -1 8
13 8 39 140 30 149 -3 3 -1 12 4 18 14 17 26 286 19 415 -11 186 -20 271 -40
367 -6 29 -9 55 -7 57 2 3 -6 12 -17 21 -11 9 -14 14 -7 10 14 -7 17 21 2 30
-6 4 -8 10 -5 14 2 5 -3 33 -12 62 -9 30 -17 56 -18 59 -1 3 -5 20 -9 38 -4
17 -11 32 -15 32 -4 0 -8 7 -9 15 -1 8 -3 22 -4 30 -1 9 -7 14 -13 11 -8 -3
-10 4 -7 20 2 14 0 24 -7 24 -7 0 -9 5 -6 10 8 12 -54 150 -67 150 -5 0 -7 4
-4 9 9 13 -4 42 -15 35 -5 -3 -9 -2 -8 3 4 20 -2 41 -17 59 -8 10 -12 13 -8 5
5 -9 3 -12 -5 -7 -6 4 -9 11 -6 16 3 5 -4 24 -14 42 -11 18 -29 52 -40 76 -11
24 -25 41 -31 37 -6 -3 -7 0 -4 9 3 9 1 16 -5 16 -6 0 -11 6 -11 13 0 7 -9 23
-20 35 -11 12 -20 25 -20 31 0 5 -13 23 -29 40 -16 17 -26 31 -23 31 3 0 -5
11 -18 25 -12 13 -27 22 -31 19 -5 -3 -7 1 -4 8 3 7 -11 30 -29 51 -32 35 -55
50 -40 25 5 -7 3 -8 -5 -4 -7 5 -10 15 -7 23 7 18 -92 116 -107 106 -6 -3 -7
-1 -4 4 8 13 -27 46 -37 36 -4 -4 -4 0 -1 9 4 11 -4 23 -27 39 -18 13 -41 33
-50 44 -10 11 -17 17 -18 14 0 -4 -17 10 -39 30 -55 52 -65 58 -80 53 -8 -3
-11 0 -7 7 8 13 -53 53 -67 44 -6 -3 -7 -2 -4 4 4 5 -5 16 -18 23 -14 7 -25
17 -25 22 0 5 -4 7 -9 4 -5 -3 -14 1 -21 9 -7 8 -19 15 -28 15 -8 0 -13 3 -9
6 6 6 -55 43 -78 47 -5 1 -12 5 -15 9 -3 4 -18 9 -34 12 -16 3 -31 8 -35 12
-3 4 2 4 12 1 12 -4 16 -3 11 4 -3 6 -15 9 -25 6 -11 -3 -17 -1 -14 3 8 12
-123 73 -137 64 -6 -4 -8 -3 -5 3 9 14 -38 34 -60 26 -10 -4 -14 -2 -10 4 8
12 -20 26 -34 17 -5 -3 -9 -1 -9 5 0 13 -97 44 -111 35 -8 -5 -9 -3 -4 6 6 10
4 12 -8 7 -10 -3 -17 -2 -17 4 0 6 -5 7 -10 4 -6 -4 -16 -2 -23 3 -18 15 -138
44 -159 39 -10 -3 -16 -2 -13 2 2 4 -16 12 -40 18 -32 7 -43 7 -38 -1 4 -6 -1
-5 -10 3 -9 7 -38 15 -64 16 -27 2 -48 4 -48 6 0 1 -13 3 -30 4 -16 1 -50 5
-75 8 -75 10 -228 13 -361 6z m467 -41 c4 -7 4 -10 -1 -6 -4 4 -15 2 -24 -5
-14 -11 -14 -10 -2 6 16 20 18 21 27 5z m-746 -2 c0 -2 -7 -7 -16 -10 -8 -3
-12 -2 -9 4 6 10 25 14 25 6z m895 -16 c-3 -5 -12 -10 -18 -10 -7 0 -6 4 3 10
19 12 23 12 15 0z m442 -146 c-3 -3 -12 -4 -19 -1 -8 3 -5 6 6 6 11 1 17 -2
13 -5z m-2140 -149 c0 -8 -4 -12 -9 -9 -5 3 -6 10 -3 15 9 13 12 11 12 -6z
m2587 -101 c3 -8 2 -12 -4 -9 -6 3 -10 10 -10 16 0 14 7 11 14 -7z m147 -81
c13 -16 12 -17 -3 -4 -17 13 -22 21 -14 21 2 0 10 -8 17 -17z m250 -240 c13
-16 12 -17 -3 -4 -10 7 -18 15 -18 17 0 8 8 3 21 -13z m-3551 -43 c0 -5 -5
-10 -11 -10 -5 0 -7 5 -4 10 3 6 8 10 11 10 2 0 4 -4 4 -10z m1839 -126 c22
-5 60 -36 130 -106 55 -55 104 -97 110 -94 6 4 9 1 6 -6 -6 -15 39 -60 50 -50
4 4 5 2 3 -4 -1 -6 13 -27 32 -45 19 -19 34 -37 33 -41 -2 -4 6 -9 16 -13 11
-3 27 -17 36 -31 10 -16 22 -23 31 -20 9 3 12 1 9 -5 -8 -13 14 -41 26 -33 5
3 8 2 7 -3 -2 -4 5 -19 15 -33 9 -13 17 -20 17 -15 0 5 6 1 13 -10 9 -11 19
-15 28 -10 11 6 11 5 3 -4 -9 -10 -6 -18 10 -35 11 -12 26 -19 31 -15 6 4 17
3 25 -3 12 -8 12 -9 -2 -4 -29 9 -21 -11 21 -55 25 -27 43 -39 51 -34 9 5 11
4 6 -4 -5 -7 12 -32 44 -64 29 -29 49 -45 45 -37 -5 8 -5 12 -1 8 4 -3 6 -8 4
-11 -1 -3 6 -14 16 -26 15 -17 22 -19 35 -9 13 10 14 10 3 -2 -10 -12 7 -33
104 -127 64 -62 120 -111 124 -108 4 3 6 -5 2 -17 -3 -14 -2 -19 6 -14 7 4 12
1 12 -7 0 -7 12 -24 27 -38 14 -13 23 -17 19 -9 -4 8 3 2 15 -15 33 -43 302
-315 312 -315 5 0 5 5 1 12 -4 7 -3 8 5 4 6 -4 8 -12 5 -18 -5 -7 -1 -9 9 -5
16 6 30 -6 33 -31 1 -7 -3 -9 -9 -5 -7 3 -3 -3 7 -16 11 -12 26 -19 34 -16 13
5 13 3 1 -12 -12 -15 -12 -16 4 -10 11 4 16 3 12 -4 -4 -6 1 -16 11 -23 27
-20 42 -83 31 -136 -5 -25 -10 -54 -12 -65 -2 -11 -4 -22 -5 -25 -1 -3 -2 -9
-1 -13 1 -5 -3 -6 -9 -2 -8 5 -7 12 2 23 7 10 -5 1 -28 -18 -22 -19 -40 -37
-38 -40 6 -13 -127 0 -155 14 -17 9 -37 14 -43 10 -7 -4 -8 -3 -4 5 5 7 -11
32 -41 63 -26 28 -67 71 -90 95 -26 28 -47 42 -54 37 -8 -5 -9 -3 -4 5 9 16
-290 315 -305 306 -5 -3 -7 1 -4 9 4 10 -25 47 -87 110 -51 52 -95 94 -98 92
-3 -2 -34 25 -68 60 -34 35 -60 64 -56 64 3 0 -7 10 -23 23 -16 12 -32 21 -37
19 -5 -1 -6 1 -3 6 6 11 -54 78 -67 74 -4 -1 -6 1 -3 6 7 12 -68 84 -79 75 -4
-5 -5 -3 -2 3 4 7 0 17 -8 24 -14 12 -19 7 -16 -13 1 -5 -3 -6 -9 -2 -8 5 -8
11 0 21 10 10 0 24 -45 66 -32 29 -93 88 -136 131 -43 42 -84 78 -91 78 -96
11 -131 1 -159 -45 -10 -17 -19 -27 -19 -21 0 5 -32 -23 -71 -63 -42 -43 -67
-76 -63 -83 4 -8 3 -9 -4 -5 -15 9 -94 -63 -85 -78 3 -6 2 -8 -2 -3 -5 4 -26
-9 -47 -30 -36 -35 -51 -62 -26 -47 7 4 8 3 4 -4 -4 -6 -12 -9 -19 -6 -15 5
-58 -40 -62 -65 -1 -9 -8 -15 -15 -13 -13 3 -86 -76 -83 -90 2 -4 0 -7 -5 -7
-22 4 -34 -3 -29 -15 4 -11 1 -13 -10 -9 -9 4 -14 2 -11 -3 3 -5 0 -15 -8 -22
-8 -7 -14 -10 -14 -7 0 4 -25 -17 -55 -46 -30 -28 -52 -56 -48 -62 3 -6 1 -7
-5 -3 -11 6 -82 -77 -82 -97 0 -6 -3 -8 -6 -4 -4 3 -20 -11 -38 -31 -17 -21
-35 -40 -41 -42 -5 -3 -10 -7 -9 -10 0 -3 -15 -19 -33 -37 -18 -17 -33 -28
-33 -25 0 3 -18 -14 -40 -38 -22 -24 -40 -47 -40 -50 0 -3 -14 -14 -30 -24
-24 -13 -30 -23 -26 -39 3 -12 3 -16 0 -9 -8 18 -22 15 -29 -8 -3 -11 -9 -19
-13 -17 -16 5 -93 -77 -87 -92 3 -9 3 -12 -1 -8 -10 10 -105 -84 -97 -96 3 -6
1 -7 -4 -4 -6 4 -24 0 -39 -8 -46 -24 -115 -19 -159 11 -30 20 -40 23 -47 12
-6 -9 -8 -7 -4 8 4 13 -1 29 -14 44 -23 26 -26 35 -8 24 7 -5 8 -3 4 5 -11 16
-14 101 -5 101 5 0 6 9 4 20 -2 11 -1 19 3 18 4 -1 43 36 87 82 44 46 90 93
103 103 12 10 20 23 16 28 -3 5 -2 9 3 8 20 -4 24 2 12 19 -11 14 -11 15 1 4
11 -10 20 -6 47 20 18 18 33 37 33 42 0 6 -5 4 -11 -4 -9 -13 -10 -13 -6 0 2
8 12 15 23 15 10 0 18 6 16 13 -1 6 4 11 10 10 7 -2 12 3 10 10 -1 8 1 11 6 8
14 -8 42 32 36 51 -5 15 -4 15 4 3 9 -11 24 -1 81 58 39 39 69 77 67 84 -1 7
-1 10 1 6 8 -14 23 -8 23 8 0 8 5 12 10 9 6 -3 10 -1 10 5 0 17 26 40 35 32 5
-4 5 3 2 16 -3 12 -1 20 4 16 13 -7 231 215 223 227 -3 5 0 8 8 7 7 -2 12 4
10 14 -1 9 2 19 8 23 6 3 7 0 4 -9 -11 -28 4 -17 83 61 43 42 71 71 62 65 -12
-9 -16 -9 -16 3 0 7 3 14 6 13 27 -3 43 6 51 27 5 14 12 25 15 25 4 0 3 -5 -1
-12 -5 -7 -3 -8 5 -3 7 4 10 16 8 27 -4 16 -3 17 9 7 10 -8 14 -9 14 0 0 6 38
48 84 92 47 44 84 86 82 92 -1 7 -1 8 2 4 2 -5 48 36 102 89 82 81 97 101 87
114 -9 12 -9 13 3 3 11 -10 18 -9 37 9 18 17 21 24 11 37 -10 13 -10 14 2 4
21 -19 45 4 28 26 -11 14 -11 14 3 4 9 -7 19 -9 25 -4 19 18 81 25 133 15z
m-315 -172 c3 -5 -1 -9 -9 -9 -8 0 -12 4 -9 9 3 4 7 8 9 8 2 0 6 -4 9 -8z
m-79 -93 c-4 -5 -12 -9 -18 -8 -9 0 -8 2 1 6 6 2 9 10 6 15 -4 7 -2 8 5 4 6
-4 9 -12 6 -17z m-65 -65 c0 -8 -19 -13 -24 -6 -3 5 1 9 9 9 8 0 15 -2 15 -3z
m2565 -33 c3 -5 2 -12 -3 -15 -5 -3 -9 1 -9 9 0 17 3 19 12 6z m-2680 -59 c-3
-3 -11 0 -18 7 -9 10 -8 11 6 5 10 -3 15 -9 12 -12z m-192 -159 c-3 -7 -6 -13
-8 -13 -2 0 -5 6 -8 13 -3 8 1 14 8 14 7 0 11 -6 8 -14z m878 -50 c13 -16 12
-17 -3 -4 -17 13 -22 21 -14 21 2 0 10 -8 17 -17z m-156 -23 c-3 -5 -12 -10
-18 -10 -7 0 -6 4 3 10 19 12 23 12 15 0z m-761 -12 c-2 -3 -13 -6 -24 -5 -24
2 -18 13 9 13 11 0 18 -4 15 -8z m811 -52 c9 -9 20 -14 25 -11 5 3 12 0 16 -6
4 -8 3 -9 -4 -5 -29 18 -6 -13 36 -49 26 -22 63 -59 82 -81 19 -23 38 -39 43
-37 4 2 7 0 7 -5 0 -11 63 -82 73 -82 5 0 6 4 3 8 -3 5 1 9 9 9 11 0 12 -4 3
-14 -8 -11 5 -29 63 -88 67 -68 98 -87 91 -56 -3 18 6 13 18 -9 9 -16 8 -19
-6 -13 -14 5 -15 3 -5 -16 7 -12 17 -18 23 -15 6 4 8 3 5 -3 -4 -6 2 -18 12
-27 13 -11 21 -14 26 -7 3 6 11 11 18 11 6 0 3 -6 -6 -12 -15 -12 -13 -16 22
-50 26 -25 42 -33 49 -26 12 12 32 2 31 -15 0 -9 -2 -9 -6 1 -2 6 -9 12 -14
12 -20 0 -6 -24 44 -74 28 -29 64 -68 79 -85 17 -20 32 -30 40 -25 7 4 10 4 6
-1 -4 -4 0 -14 10 -22 11 -10 12 -12 2 -8 -8 4 -6 -1 5 -9 11 -9 26 -14 34
-11 11 4 11 3 2 -9 -9 -11 -6 -18 16 -36 34 -26 243 -228 243 -235 0 -2 11
-16 25 -31 l25 -27 2 -582 c2 -321 1 -582 -2 -581 -8 4 -49 -42 -43 -48 3 -3
-3 -5 -13 -4 -11 0 -194 -1 -409 -1 -265 -1 -391 1 -393 9 -2 5 -7 8 -12 5 -4
-3 -15 13 -24 35 -13 33 -16 92 -16 361 -1 283 -3 323 -17 338 -20 20 -11 19
-286 21 -210 1 -229 0 -252 -18 l-24 -19 -1 -312 c0 -238 2 -311 12 -311 7 0
5 -5 -5 -13 -9 -6 -17 -28 -19 -47 -3 -30 -7 -35 -38 -42 -19 -4 -203 -7 -408
-8 -391 -1 -415 1 -442 43 -8 14 -11 158 -10 569 0 435 -2 553 -12 566 -10 12
-10 14 0 8 6 -4 12 -3 12 1 0 5 -6 15 -12 22 -11 11 -10 12 1 6 11 -6 13 -4 8
9 -4 9 -3 15 2 12 11 -7 147 132 144 145 -2 5 0 8 5 6 11 -3 82 65 82 80 0 8
5 11 10 8 6 -3 10 -2 10 4 0 5 9 13 20 16 11 3 20 11 20 17 0 6 -7 5 -17 -3
-16 -13 -17 -12 -4 4 8 9 16 15 19 12 7 -7 32 15 32 28 0 7 -4 7 -12 -1 -7 -7
-16 -12 -22 -12 -5 0 -1 6 9 14 11 8 24 12 30 10 17 -7 66 36 58 49 -11 18
-12 38 -2 31 5 -3 7 -10 4 -15 -13 -20 13 -7 36 19 44 49 64 76 52 68 -9 -5
-11 -2 -6 10 4 11 8 13 11 6 5 -17 22 -15 22 3 0 8 6 14 13 12 6 -1 11 4 10
11 -2 6 4 12 12 12 8 0 15 4 15 9 0 9 90 98 232 230 47 44 65 68 61 79 -4 10
-2 14 2 9 11 -9 76 53 69 65 -3 5 -2 7 3 6 13 -4 83 64 77 74 -3 4 1 8 9 8 8
0 26 17 40 38 15 20 36 43 48 51 18 10 19 15 8 22 -12 8 -12 9 1 7 23 -3 64
13 52 21 -6 3 11 6 38 5 30 -1 56 -8 65 -18z m189 8 c3 -8 2 -12 -4 -9 -6 3
-10 10 -10 16 0 14 7 11 14 -7z m-399 -24 c3 -6 -1 -7 -9 -4 -18 7 -21 14 -7
14 6 0 13 -4 16 -10z m990 -2 c5 4 5 1 1 -6 -6 -10 -11 -10 -22 -1 -8 6 -14
14 -14 16 0 3 6 0 13 -6 8 -6 18 -7 22 -3z m1505 -18 c0 -5 -8 -10 -17 -10
-15 0 -16 2 -3 10 19 12 20 12 20 0z m-2509 -43 c-10 -9 -11 -8 -5 6 3 10 9
15 12 12 3 -3 0 -11 -7 -18z m377 -42 c-3 -3 -9 2 -12 12 -6 14 -5 15 5 6 7
-7 10 -15 7 -18z m802 -51 c0 -8 -19 -13 -24 -6 -3 5 1 9 9 9 8 0 15 -2 15 -3z
m-1335 -84 c-3 -5 -12 -10 -18 -10 -7 0 -6 4 3 10 19 12 23 12 15 0z m-52 -25
c-3 -9 -8 -14 -10 -11 -3 3 -2 9 2 15 9 16 15 13 8 -4z m-67 -88 c1 -8 -4 -14
-12 -14 -7 0 -11 4 -8 9 3 4 0 8 -5 8 -6 0 -10 6 -8 13 1 6 -4 11 -11 9 -8 -1
-11 2 -7 8 8 13 48 -13 51 -33z m43 36 c14 11 14 10 2 -6 -10 -13 -17 -15 -27
-6 -8 6 -14 14 -14 17 0 3 5 1 12 -6 9 -9 15 -9 27 1z m1575 -49 c3 -8 2 -12
-4 -9 -6 3 -10 10 -10 16 0 14 7 11 14 -7z m81 -54 c3 -6 -1 -7 -9 -4 -18 7
-21 14 -7 14 6 0 13 -4 16 -10z m-490 -49 c-6 -5 -25 10 -25 20 0 5 6 4 14 -3
8 -7 12 -15 11 -17z m-2060 -11 c-3 -5 -12 -10 -18 -10 -7 0 -6 4 3 10 19 12
23 12 15 0z m2622 3 c-4 -3 -1 -13 6 -22 11 -14 10 -14 -5 -2 -16 12 -16 31
-1 31 4 0 3 -3 0 -7z m-517 -27 c0 -2 -7 -7 -16 -10 -8 -3 -12 -2 -9 4 6 10
25 14 25 6z m511 -13 c13 -16 12 -17 -3 -4 -10 7 -18 15 -18 17 0 8 8 3 21
-13z m70 -70 c13 -16 12 -17 -3 -4 -17 13 -22 21 -14 21 2 0 10 -8 17 -17z
m-2261 -18 c0 -2 -10 -9 -22 -15 -22 -11 -22 -10 -4 4 21 17 26 19 26 11z m-7
-140 c-3 -9 -8 -14 -10 -11 -3 3 -2 9 2 15 9 16 15 13 8 -4z m57 -9 c0 -2 -8
-10 -17 -17 -16 -13 -17 -12 -4 4 13 16 21 21 21 13z m-293 -92 c-3 -3 -12 -4
-19 -1 -8 3 -5 6 6 6 11 1 17 -2 13 -5z m111 -78 c-7 -8 -15 -12 -17 -11 -5 6
10 25 20 25 5 0 4 -6 -3 -14z m-148 0 c0 -3 -4 -8 -10 -11 -5 -3 -10 -1 -10 4
0 6 5 11 10 11 6 0 10 -2 10 -4z m-83 -76 c4 -13 3 -13 -6 0 -8 11 -13 12 -18
4 -6 -9 -11 -8 -20 1 -10 11 -8 13 14 12 14 -1 28 -9 30 -17z m1500 -626 c-3
-3 -12 -4 -19 -1 -8 3 -5 6 6 6 11 1 17 -2 13 -5z m-12 -34 c3 -6 -1 -7 -9 -4
-18 7 -21 14 -7 14 6 0 13 -4 16 -10z m1841 -459 c-4 -6 -13 -11 -19 -11 -8 0
-7 3 2 9 8 5 10 14 6 22 -6 11 -5 11 5 2 7 -6 9 -16 6 -22z m-3298 -216 c-3
-3 -9 2 -12 12 -6 14 -5 15 5 6 7 -7 10 -15 7 -18z m3119 -5 c1 -11 -2 -22 -6
-24 -6 -4 -7 26 -2 42 3 8 7 -1 8 -18z m-3072 -20 c-3 -5 -12 -10 -18 -10 -7
0 -6 4 3 10 19 12 23 12 15 0z m796 -23 c-10 -9 -11 -8 -5 6 3 10 9 15 12 12
3 -3 0 -11 -7 -18z m-827 5 c2 -4 -4 -8 -14 -8 -10 0 -16 4 -14 8 3 4 9 8 14
8 5 0 11 -4 14 -8z m61 -2 c3 -6 -1 -7 -9 -4 -18 7 -21 14 -7 14 6 0 13 -4 16
-10z m3015 -44 c0 -2 -7 -7 -16 -10 -8 -3 -12 -2 -9 4 6 10 25 14 25 6z
m-3194 -467 c3 -6 1 -16 -6 -22 -10 -9 -11 -9 -5 2 4 8 2 17 -6 22 -9 6 -10 9
-2 9 6 0 15 -5 19 -11z m2612 -2 c12 5 10 0 -6 -17 -12 -13 -25 -20 -29 -17
-3 4 -1 7 6 7 8 0 10 8 7 23 -3 12 -3 17 0 10 3 -7 13 -9 22 -6z m-2148 -227
c0 -5 -8 -10 -17 -10 -15 0 -16 2 -3 10 19 12 20 12 20 0z m1640 -25 c0 -8 -4
-15 -8 -15 -5 0 -9 7 -9 15 0 8 4 15 9 15 4 0 8 -7 8 -15z m-1617 -2 c-7 -2
-19 -2 -25 0 -7 3 -2 5 12 5 14 0 19 -2 13 -5z"/>
<path d="M4045 2560 c-3 -5 1 -10 10 -10 9 0 13 5 10 10 -3 6 -8 10 -10 10 -2
0 -7 -4 -10 -10z"/>
</g>
</svg>
