<?xml version="1.0" standalone="no"?>
<!DOCTYPE svg PUBLIC "-//W3C//DTD SVG 20010904//EN"
 "http://www.w3.org/TR/2001/REC-SVG-20010904/DTD/svg10.dtd">
<svg version="1.0" xmlns="http://www.w3.org/2000/svg"
 width="500.000000pt" height="500.000000pt" viewBox="0 0 500.000000 500.000000"
 preserveAspectRatio="xMidYMid meet">

<g transform="translate(0.000000,500.000000) scale(0.100000,-0.100000)"
fill="#000000" stroke="none">
<path d="M2397 3844 c-1 -1 -34 -5 -72 -9 -39 -4 -97 -13 -130 -22 -33 -8 -71
-17 -85 -20 -14 -3 -29 -12 -33 -19 -4 -8 -13 -14 -20 -14 -7 0 -6 4 3 10 23
15 0 12 -52 -7 -27 -9 -48 -21 -48 -26 0 -4 -4 -5 -10 -2 -5 3 -10 1 -10 -4 0
-6 -3 -10 -7 -9 -23 7 -111 -47 -114 -69 0 -5 -3 -10 -6 -13 -4 -3 -3 1 1 8
13 22 -22 13 -47 -12 -13 -13 -37 -31 -53 -39 -16 -8 -42 -27 -57 -41 -15 -14
-32 -26 -36 -26 -11 0 -25 -31 -22 -50 2 -13 0 -13 -8 -1 -7 11 -14 9 -35 -12
-15 -15 -29 -26 -32 -26 -3 0 -9 -3 -12 -7 -4 -4 -1 -4 6 0 6 4 12 2 12 -3 0
-6 -5 -11 -11 -11 -27 0 -114 -122 -105 -146 4 -12 2 -12 -14 -4 -16 9 -20 7
-26 -14 -3 -14 -14 -32 -25 -42 -18 -16 -18 -18 -2 -38 10 -12 11 -15 3 -8
-16 14 -34 16 -26 3 3 -5 -1 -11 -9 -15 -9 -3 -15 -19 -16 -38 0 -18 -3 -27
-6 -19 -3 8 -14 -5 -29 -35 -26 -56 -30 -78 -11 -69 6 4 4 0 -6 -8 -17 -14
-22 -27 -34 -87 -2 -14 -7 -32 -10 -40 -4 -8 -7 -17 -7 -20 -1 -3 -5 -10 -9
-17 -4 -6 -4 -19 0 -29 4 -11 3 -15 -4 -11 -7 5 -11 -12 -10 -51 0 -32 -4 -56
-10 -55 -18 3 -8 -363 11 -432 10 -33 19 -78 21 -100 2 -22 8 -41 14 -43 7 -2
8 -14 5 -29 -5 -17 -3 -24 3 -20 6 4 14 0 17 -9 3 -8 2 -12 -4 -9 -6 3 -10 1
-10 -4 0 -6 4 -11 10 -11 11 0 42 -68 36 -79 -9 -13 86 -166 116 -189 10 -7
18 -22 18 -34 0 -16 3 -18 14 -9 11 9 16 9 22 0 4 -7 3 -9 -3 -6 -6 4 -14 0
-17 -9 -4 -11 -2 -15 8 -11 10 4 14 0 11 -14 -2 -10 0 -19 4 -19 10 0 53 -37
51 -44 0 -4 4 -12 10 -19 6 -6 18 -21 26 -32 9 -11 12 -13 8 -5 -4 8 3 5 15
-7 24 -26 40 -31 21 -8 -7 8 -11 15 -9 16 34 7 38 6 32 -4 -14 -23 -12 -42 7
-59 11 -10 23 -18 28 -18 4 0 23 -15 42 -32 18 -18 30 -27 25 -19 -5 10 -4 12
3 7 7 -4 12 -14 12 -22 0 -8 6 -14 14 -14 8 0 24 -11 37 -25 13 -13 29 -25 34
-25 6 0 3 5 -5 10 -10 7 -11 10 -2 10 7 0 15 -7 18 -15 3 -8 21 -20 39 -27 19
-6 32 -15 29 -20 -3 -4 4 -8 15 -8 11 0 23 -5 26 -10 4 -6 11 -8 16 -5 5 4 9
1 9 -4 0 -6 3 -10 8 -10 24 4 52 -2 47 -11 -3 -5 0 -10 7 -11 30 -1 62 -10 73
-19 7 -5 15 -7 18 -3 4 3 7 2 7 -3 0 -5 16 -10 36 -11 19 -1 41 -7 48 -13 8
-5 21 -8 30 -4 9 3 16 2 16 -4 0 -15 149 -30 325 -32 112 -2 202 11 297 40 35
11 73 21 83 23 11 2 38 11 60 21 22 10 45 19 50 20 29 7 102 48 205 115 148
97 285 233 381 379 94 141 160 284 138 297 -5 4 -5 13 0 23 4 9 6 24 4 32 -4
12 -3 12 5 1 5 -7 12 -9 15 -5 7 12 22 106 19 122 -2 6 3 12 10 12 9 0 9 3 0
12 -7 7 -12 17 -12 23 0 5 4 4 9 -3 30 -48 36 352 7 491 -9 43 -16 81 -16 83
0 3 -3 3 -7 1 -5 -3 -9 13 -10 35 0 22 -7 45 -14 52 -9 8 -10 8 -4 -3 6 -10 4
-12 -4 -7 -9 6 -9 11 0 22 8 10 8 14 0 14 -6 0 -10 3 -9 8 5 14 -36 121 -44
116 -4 -3 -8 0 -8 6 0 7 -6 10 -13 7 -8 -3 -13 3 -13 14 0 22 12 25 19 7 3 -8
6 -8 6 -2 1 6 -8 21 -19 34 -11 13 -20 29 -20 37 0 7 -4 13 -8 13 -4 0 -13 15
-20 33 -10 26 -14 29 -23 17 -9 -12 -10 -12 -5 3 6 19 -17 51 -28 39 -4 -3 -5
0 -2 8 7 18 -40 74 -54 65 -5 -3 -8 0 -5 7 6 17 -21 52 -34 43 -7 -3 -8 0 -5
9 6 16 -10 23 -19 9 -2 -5 -2 -2 -1 5 2 7 -3 15 -12 19 -8 3 -13 11 -10 18 3
8 -5 16 -20 19 -13 4 -24 13 -24 22 0 8 -8 18 -17 21 -10 4 -33 21 -52 38 -18
16 -37 29 -42 28 -4 -2 -21 11 -37 27 -23 22 -32 26 -41 17 -9 -9 -11 -8 -6 5
5 13 0 19 -19 24 -14 3 -26 10 -26 15 0 4 -10 13 -21 20 -17 9 -20 8 -14 -3 3
-7 0 -5 -8 4 -8 10 -17 15 -20 11 -4 -3 -7 -1 -7 5 0 6 -7 9 -17 5 -12 -5 -14
-3 -8 7 5 9 4 11 -3 6 -7 -4 -18 -4 -24 1 -7 4 -19 8 -26 9 -8 2 -21 6 -30 10
-9 4 -19 8 -22 8 -3 1 -16 8 -29 15 -13 7 -36 15 -50 16 -14 2 -39 6 -56 10
-16 4 -39 8 -50 8 -11 1 -23 4 -26 9 -3 4 -21 11 -40 14 -35 6 -307 13 -312 8z
m80 -20 c-3 -3 -12 -4 -19 -1 -8 3 -5 6 6 6 11 1 17 -2 13 -5z m448 -64 c3 -5
1 -10 -4 -10 -6 0 -11 5 -11 10 0 6 2 10 4 10 3 0 8 -4 11 -10z m-928 -25 c0
-8 -4 -12 -9 -9 -5 3 -6 10 -3 15 9 13 12 11 12 -6z m67 1 c-3 -9 -12 -12 -22
-9 -15 6 -9 11 25 22 1 1 0 -5 -3 -13z m1190 -141 c11 -8 15 -15 10 -15 -6 0
-19 7 -30 15 -10 8 -14 14 -9 14 6 0 19 -6 29 -14z m-1509 -5 c-3 -5 -12 -10
-18 -10 -7 0 -6 4 3 10 19 12 23 12 15 0z m1480 -18 c-3 -3 -11 0 -18 7 -9 10
-8 11 6 5 10 -3 15 -9 12 -12z m90 -2 c3 -6 -1 -7 -9 -4 -18 7 -21 14 -7 14 6
0 13 -4 16 -10z m-1715 -154 c0 -2 -9 -6 -20 -9 -11 -3 -18 -1 -14 4 5 9 34
13 34 5z m-90 -56 c0 -5 -2 -10 -4 -10 -3 0 -8 5 -11 10 -3 6 -1 10 4 10 6 0
11 -4 11 -10z m1066 -135 c-8 -8 -18 -15 -22 -15 -3 0 -1 7 6 15 7 8 17 15 22
15 5 0 3 -7 -6 -15z m-136 -19 c0 -2 -9 -6 -20 -9 -11 -3 -18 -1 -14 4 5 9 34
13 34 5z m57 -2 c-3 -3 -12 -4 -19 -1 -8 3 -5 6 6 6 11 1 17 -2 13 -5z m157
-40 c28 -19 41 -23 46 -14 5 8 9 7 13 -4 4 -9 1 -16 -6 -16 -8 0 -7 -4 3 -9 8
-6 18 -7 24 -4 5 4 7 -1 3 -10 -7 -18 26 -43 42 -32 5 3 7 -4 4 -16 -5 -16 -8
-18 -15 -7 -7 9 -7 7 -2 -7 4 -11 9 -63 11 -115 3 -57 10 -109 20 -129 10 -22
13 -48 10 -75 -6 -44 -69 -171 -117 -238 -32 -44 -38 -75 -17 -100 16 -20 125
-101 162 -120 320 -167 300 -152 313 -230 6 -35 14 -91 18 -125 l7 -63 -662 0
c-363 0 -664 1 -668 3 -5 1 -7 18 -7 37 4 95 12 179 18 189 4 6 1 11 -6 12
-10 0 -10 2 0 6 6 2 9 10 6 15 -4 6 -2 8 3 5 6 -4 26 4 45 16 18 13 40 21 48
19 13 -5 13 -3 1 11 -7 9 -18 14 -25 10 -6 -3 -7 -2 -3 2 11 13 38 15 31 3 -4
-6 -1 -8 7 -6 8 3 13 11 11 17 -1 7 2 10 8 6 6 -3 8 -11 5 -16 -3 -5 1 -6 9
-3 9 3 14 10 11 14 -3 5 3 7 12 6 28 -4 72 33 68 57 -4 19 -4 19 15 2 12 -10
20 -13 20 -7 0 7 5 12 11 12 7 0 18 8 26 18 8 9 11 11 8 4 -6 -11 -3 -12 14
-3 25 14 26 24 7 44 -12 11 -11 15 8 27 18 11 19 11 9 -1 -17 -21 0 -47 20
-31 7 7 18 8 23 4 5 -4 6 -3 2 1 -8 11 24 45 38 40 12 -4 54 42 54 60 0 5 -8
16 -17 24 -10 8 -11 11 -3 7 12 -7 12 -4 -2 16 -9 14 -21 24 -27 23 -6 -2 -8
4 -5 12 4 8 1 15 -5 15 -6 0 -8 6 -5 14 3 8 -3 19 -15 26 -12 6 -21 17 -21 25
0 23 -22 65 -31 59 -5 -3 -6 3 -2 12 4 11 2 15 -4 11 -6 -4 -14 0 -17 9 -3 8
-2 13 3 10 4 -3 5 12 1 34 -4 22 -6 40 -3 40 2 0 -2 10 -8 23 -11 20 -11 21 4
9 13 -11 15 -10 13 13 -3 21 -1 23 11 13 13 -10 14 1 11 80 -2 51 0 92 4 92 3
0 5 17 3 37 -2 26 -1 33 7 22 7 -10 8 -6 3 14 -4 19 -2 26 5 22 5 -3 10 -1 10
4 0 6 7 11 16 11 10 0 14 5 10 16 -3 8 -2 13 3 10 5 -3 15 2 22 11 12 14 12
16 -1 8 -8 -4 -12 -4 -7 0 4 5 13 10 20 12 7 1 30 7 52 13 22 5 65 13 95 16
30 3 56 6 57 8 2 1 24 1 50 -1 30 -2 63 -13 87 -29z m107 -31 c13 -16 12 -17
-3 -4 -10 7 -18 15 -18 17 0 8 8 3 21 -13z m-551 -188 c0 -5 -5 -3 -10 5 -5 8
-10 20 -10 25 0 6 5 3 10 -5 5 -8 10 -19 10 -25z m675 15 c3 -5 1 -10 -4 -10
-6 0 -11 5 -11 10 0 6 2 10 4 10 3 0 8 -4 11 -10z m894 -130 c0 -10 -3 -8 -9
5 -12 27 -12 43 0 25 5 -8 9 -22 9 -30z m-5 -56 c3 -8 2 -12 -4 -9 -6 3 -10
10 -10 16 0 14 7 11 14 -7z m-689 -14 c3 -5 2 -10 -4 -10 -5 0 -13 5 -16 10
-3 6 -2 10 4 10 5 0 13 -4 16 -10z m-785 -290 c0 -5 -5 -10 -11 -10 -5 0 -7 5
-4 10 3 6 8 10 11 10 2 0 4 -4 4 -10z m-30 -84 c0 -2 -7 -7 -16 -10 -8 -3 -12
-2 -9 4 6 10 25 14 25 6z m1516 -238 c-9 -5 -14 -13 -12 -17 3 -4 -1 -8 -9 -8
-8 0 -11 5 -7 11 4 6 7 14 8 19 1 4 2 9 3 12 0 2 8 2 17 -2 15 -5 15 -7 0 -15z
m-2515 -112 c-9 -11 -9 -15 1 -19 8 -4 7 -6 -4 -6 -21 -1 -23 10 -6 27 17 17
23 15 9 -2z m16 -108 c-3 -7 -5 -2 -5 12 0 14 2 19 5 13 2 -7 2 -19 0 -25z
m53 -103 c14 -19 14 -19 -2 -6 -10 7 -18 18 -18 24 0 6 1 8 3 6 1 -2 9 -13 17
-24z m177 -197 c-3 -8 -6 -5 -6 6 -1 11 2 17 5 13 3 -3 4 -12 1 -19z m645
-407 c-3 -9 -7 -11 -9 -4 -3 7 -12 9 -21 6 -12 -3 -14 -2 -4 4 20 15 41 12 34
-6z m38 -11 c8 -5 11 -10 5 -10 -5 0 -17 5 -25 10 -8 5 -10 10 -5 10 6 0 17
-5 25 -10z"/>
</g>
</svg>
